# xmcd CD database file generated by OrangeCD 5.2
#
# Track frame offsets:
#	150
#	13742
#	26948
#	41002
#	54842
#	65845
#	75688
#	88254
#	101893
#	118147
#	136104
#	148517
#
# Disc length: 2212 seconds
#
# Revision: 0
# Processed by: cddbd v1.5.1PL2 Copyright (c) Steve Scherf et al.
# Submitted via: OrangeCD 5.2
#
DISCID=ab08a20c
DTITLE=Various Artist - The Best Of Soul   Volume 2
DYEAR=2006
DGENRE=Soul
TTITLE0=Jimmy Ruffin - What Becomes Of The Brokenhearted
TTITLE1=Fontella Bass - Rescue Me
TTITLE2=Wilson Pickett - Mustang Sally
TTITLE3=Four Tops - Reach Out I'll Be There
TTITLE4=Aretha Franklin - Respect
TTITLE5=Gloria Jones - Tainted Love
TTITLE6=Gladys Knight and The Pipis - I Heard It Through The Grapevine
TTITLE7=Smokey Robinson and The Miracles - The Tears Of A Clown
TTITLE8=Diana Ross - Ain't No Mountain High Enough
TTITLE9=The Jackson 5 - I'll Be There
TTITLE10=James Brown and The Famous Flames - Please Please Please
TTITLE11=Marvin Gaye - What's Going On
EXTD=
EXTT0=
EXTT1=
EXTT2=
EXTT3=
EXTT4=
EXTT5=
EXTT6=
EXTT7=
EXTT8=
EXTT9=
EXTT10=
EXTT11=
PLAYORDER=
